Coordinates

Units are S.I. units (second, meters, Newtons, ...)
If the header above contains a line with 'inDegrees', this indicates whether rotational values are in degrees (yes) or radians (no).

inDegrees=no
nColumns=21
nRows=17
DataType=double
version=3
OpenSimVersion=4.6-2026-03-31-d6972f9e6
endheader
time	/jointset/ground_pelvis/pelvis_tilt/value	/jointset/ground_pelvis/pelvis_list/value	/jointset/ground_pelvis/pelvis_rotation/value	/jointset/ground_pelvis/pelvis_tx/value	/jointset/ground_pelvis/pelvis_ty/value	/jointset/ground_pelvis/pelvis_tz/value	/jointset/hip_r/hip_flexion_r/value	/jointset/hip_r/hip_adduction_r/value	/jointset/hip_r/hip_rotation_r/value	/jointset/walker_knee_r/knee_angle_r/value	/jointset/patellofemoral_r/knee_angle_r_beta/value	/jointset/ankle_r/ankle_angle_r/value	/jointset/subtalar_r/subtalar_angle_r/value	/jointset/hip_l/hip_flexion_l/value	/jointset/hip_l/hip_adduction_l/value	/jointset/hip_l/hip_rotation_l/value	/jointset/walker_knee_l/knee_angle_l/value	/jointset/patellofemoral_l/knee_angle_l_beta/value	/jointset/ankle_l/ankle_angle_l/value	/jointset/subtalar_l/subtalar_angle_l/value
147.496	-0.2041050307375666	-0.007253523583209263	-0.07745369348801714	0.8927239644327504	0.9508126074881267	-0.320828428228098	0.6307206651346601	0.1129009107744003	0.07698401061513381	0.6211045874134898	0.6211045881046324	-0.02356367080755942	-0.4218082994248977	-0.01426601227404859	-0.007232013442561626	-0.05698821580947734	1.079250285617088	1.079250285033831	-0.5562885901474124	-0.3141850904502128
147.5	-0.198437739432494	-0.009462310685312671	-0.08064877324102075	0.8919110655598174	0.948189799452656	-0.3199240463347661	0.6275262772282596	0.1181110149973352	0.07408177684706183	0.6480269553821277	0.6480269559795647	-0.002204856105209607	-0.4278856296804333	-0.005336263134777926	-0.01460112001616974	-0.06035584607440381	1.113294383935161	1.113294383324064	-0.5473078406907406	-0.3186359254905584
147.504	-0.193356621607052	-0.01202496423667873	-0.08399692013705452	0.8909896722359121	0.9455614353871524	-0.3190184636146295	0.6246394229908752	0.1234389678319652	0.07103182201423827	0.6743494370288085	0.6743494375310081	0.01913985094664751	-0.4321477151389029	0.004736816762379767	-0.02272231063989713	-0.0638701699039894	1.146912174015188	1.146912173391345	-0.5373704578254258	-0.3230878233580675
147.508	-0.1890199695533031	-0.01492836484672364	-0.08745018945467062	0.8899665167153823	0.9429333335577351	-0.3181233299947209	0.6221226090972777	0.1288325941182899	0.06783558499367681	0.6998453589672622	0.6998453593759322	0.0402841446010325	-0.4346075821753659	0.0161306145786777	-0.0315334349067089	-0.06732191176266297	1.180001657025734	1.180001656405786	-0.526513285959093	-0.3274710596082543
147.512	-0.1855706099394262	-0.01815032831198707	-0.09095374292767863	0.8888502626825592	0.9403122412766943	-0.3172505844412932	0.6200237095264417	0.1342343019504185	0.06449386234538655	0.7243034910435959	0.7243034913649389	0.06106259713641149	-0.4353156450663737	0.02900473662854711	-0.04095324967738088	-0.07050532774695392	1.212455635818472	1.212455635220096	-0.5147887762293113	-0.3317059590956179
147.516	-0.1831301630547857	-0.02165917005878349	-0.09444756562396329	0.8876512055347369	0.9377060392046723	-0.3164120679631939	0.6183726158926889	0.1395817281609094	0.0610078322412759	0.7475316356376248	0.7475316358831994	0.08133357676694127	-0.4343553802742908	0.04349401878968925	-0.05088187024109064	-0.07322459341172725	1.244162216698622	1.24416221613963	-0.5022650490565561	-0.3357080445526282
147.52	-0.1817937550889555	-0.02541361738432525	-0.09786840549136028	0.88638092873772	0.9351239474644651	-0.3156191336246867	0.617178115480721	0.144808591196558	0.05738036272876699	0.769359578401819	0.7693595785889138	0.1009808007184333	-0.4318383682967576	0.05970185009314004	-0.06120185289809811	-0.07529990815206065	1.275005386296508	1.275005385793609	-0.4890253182716032	-0.3393934739860592
147.524	-0.1816254966416386	-0.02936311571367209	-0.1011518356897624	0.8850519359267656	0.9325767165225239	-0.3148822714527958	0.6164252250717861	0.1498457594507436	0.05361747332739584	0.7896412846534887	0.7896412848049269	0.1199135232534975	-0.4278989436767484	0.07769418658240873	-0.07177996392143469	-0.07657311854794746	1.304865691311596	1.304865690879044	-0.4751666670614242	-0.3426844636895572
147.528	-0.1826550278927346	-0.03344857132283326	-0.1042343383956763	0.8836772783567124	0.930076783396576	-0.314210764033199	0.6160732158392477	0.1546225603325763	0.04972981308686852	0.8082562545580041	0.8082562547012486	0.1380653151657071	-0.4226888313968976	0.09749463567905584	-0.08246968413526448	-0.07691266895571632	1.33362105159253	1.333621051240957	-0.4607982329809838	-0.3455144449728598
147.532	-0.1848753972969742	-0.03760354237749625	-0.1070553109623187	0.8822701964733973	0.9276383716284173	-0.3136123871858079	0.6160545593045419	0.1590683310877316	0.0457340068125093	0.8251099990358753	0.8251099992014401	0.1553914713676616	-0.4163721291933811	0.1190809706857475	-0.09311445180906408	-0.07621769415835659	1.361147734785082	1.36114773452072	-0.4460388868202476	-0.3478327056107789
147.536	-0.1882424656527449	-0.04175582338049284	-0.109558894380721	0.8808437933260642	0.9252775140725494	-0.3130931710157339	0.6162749876016905	0.1631141266673729	0.04165370405898971	0.8401336768150295	0.840133677034452	0.171865350228233	-0.4091206982501267	0.1423833637101225	-0.1035515338236919	-0.07442105195330645	1.387321504561706	1.387321504385965	-0.4310144721094112	-0.3496082269469405
147.54	-0.1926759144208713	-0.0458293226031258	-0.1116955337310066	0.8794107555147468	0.9230119833432222	-0.3126572352355634	0.6166147741347431	0.166694448568995	0.03752018495743225	0.8532829911778985	0.8532829914816645	0.1874741195623315	-0.4011097949939011	0.1672845008692539	-0.1136163276771489	-0.07149110706672826	1.412018925988587	1.412018925897859	-0.4158546934168724	-0.3508324800376189
147.544	-0.1980618261354016	-0.049746142715771	-0.1134232107539749	0.8779831332832925	0.9208611229835608	-0.3123067058016753	0.6169312331905303	0.1697488998384568	0.03337243536062561	0.8645364507688144	0.8645364511845447	0.2022142877247049	-0.3925138823566798	0.1936216136248745	-0.123146906601121	-0.06743216481493113	1.435118789618791	1.435118789604499	-0.4006898325728547	-0.3515211143211814
147.548	-0.2042567267977674	-0.05342880261843377	-0.114708324736137	0.8765721853276585	0.918845578341522	-0.3120417112285671	0.6170623588858096	0.1722237399910724	0.02925666082303555	0.8738930846344545	0.8738930851854008	0.2160872139060213	-0.383502801906648	0.2211903693659882	-0.1319886677895579	-0.06228356034246904	1.456503613024451	1.456503613073552	-0.3856475534684846	-0.3517146135446403
147.552	-0.2110929175077719	-0.05680252887094208	-0.1155262167983358	0.8751882874019987	0.916986930181909	-0.311860452314575	0.6168314767276427	0.1740733195757753	0.02522524921037908	0.8813697160444395	0.8813697167481452	0.2290947268174243	-0.3742385616731723	0.2497504937324546	-0.1399989256755736	-0.05611746367658312	1.476061181657383	1.476061181753519	-0.3708500374044285	-0.351477996351135
147.556	-0.2183848465073461	-0.05979749668715518	-0.1158613346748317	0.8738408988516884	0.9153072393021016	-0.3117593397010144	0.6160527334532701	0.1752613104929522	0.02133522186665239	0.8869979500702648	0.8869979509373819	0.24123504763885	-0.3648728397461167	0.2790329023367213	-0.1470512034094747	-0.04903547517984951	1.493686083141514	1.493686083266861	-0.3564115656641985	-0.3508995540269854
147.56	-0.2259361901380071	-0.06235087236506451	-0.1157070425566498	0.8725385785924056	0.9138285178562433	-0.3117331944137565	0.6145371824483987	0.1757616062682622	0.01764624740326773	0.8908210657055959	0.8908210667391413	0.2524992714605477	-0.355545122948542	0.3087480003962852	-0.1530389274688575	-0.0411641296266711	1.50928117364052	1.509281173778097	-0.342436550450056	-0.3500885969014026
